<svg width="377" height="374" viewBox="0 0 377 374" fill="none" xmlns="http://www.w3.org/2000/svg">
<path opacity="0.1" d="M200.873 147.976C201.528 148.178 201.528 148.177 201.528 148.176L201.53 148.17L201.536 148.15L201.561 148.068C201.583 147.997 201.615 147.89 201.658 147.749C201.743 147.468 201.868 147.051 202.028 146.508C202.243 145.781 202.52 144.829 202.851 143.672C203.022 143.105 203.209 142.49 203.412 141.829C204.643 137.819 206.457 132.123 208.787 125.385C213.446 111.907 220.163 94.273 228.398 77.6247C236.641 60.9597 246.37 45.354 257.031 35.871C262.356 31.1339 267.874 27.9612 273.517 26.9139C279.139 25.8704 284.949 26.9241 290.912 30.7564C296.875 34.5886 300.247 39.4362 301.634 44.9836C303.025 50.5516 302.431 56.8885 300.334 63.7005C296.137 77.3371 285.983 92.6701 274.248 107.091C262.525 121.497 249.275 134.933 238.951 144.77C233.79 149.688 229.362 153.705 226.226 156.491C225.709 156.95 225.227 157.376 224.783 157.767C223.867 158.548 223.116 159.196 222.545 159.693C222.117 160.065 221.79 160.351 221.569 160.545C221.459 160.643 221.375 160.716 221.319 160.766L221.256 160.823L221.239 160.837L221.235 160.841C221.235 160.841 221.234 160.841 221.263 160.874C221.306 160.923 221.414 161.044 221.683 161.347L221.234 160.842L222.131 161.878L221.689 161.354C222.131 161.878 222.132 161.877 222.133 161.877L222.137 161.873L222.154 161.859L222.218 161.804C222.276 161.756 222.361 161.683 222.473 161.588C222.696 161.397 223.026 161.114 223.455 160.744C224.028 160.249 224.777 159.598 225.68 158.803C226.13 158.419 226.62 158.002 227.148 157.556C230.353 154.848 234.958 151.037 240.561 146.628C251.767 137.809 266.952 126.606 282.88 117.052C298.824 107.489 315.446 99.6209 329.541 97.407C336.582 96.301 342.939 96.6149 348.252 98.7846C353.546 100.946 357.865 104.974 360.809 111.422C363.754 117.87 363.97 123.771 362.137 129.187C360.297 134.623 356.371 139.633 350.925 144.23C340.021 153.433 323.19 160.842 305.521 166.63C287.87 172.411 269.46 176.55 255.456 179.244C248.455 180.591 242.559 181.576 238.414 182.224C237.731 182.331 237.095 182.429 236.51 182.517C235.318 182.68 234.336 182.819 233.586 182.928C233.026 183.009 232.595 183.074 232.305 183.118C232.241 183.127 232.185 183.136 232.134 183.144C232.07 183.154 232.017 183.162 231.975 183.168L231.891 183.181L231.87 183.185L231.864 183.185C231.863 183.186 231.862 183.186 231.969 183.863M200.873 147.976C200.212 147.791 200.213 147.791 200.213 147.789L200.214 147.784L200.22 147.763L200.243 147.681C200.264 147.609 200.294 147.502 200.334 147.361C200.415 147.078 200.535 146.66 200.694 146.116C200.906 145.389 201.188 144.438 201.535 143.286C201.698 142.717 201.873 142.098 202.059 141.432C203.192 137.392 204.745 131.62 206.428 124.693C209.795 110.835 213.678 92.3686 215.751 73.9113C217.827 55.4353 218.079 37.0468 214.237 23.3057C212.319 16.4415 209.392 10.7895 205.211 6.85766C201.046 2.94035 195.588 0.685455 188.5 0.685455C181.412 0.685455 175.954 2.94035 171.789 6.85766C167.608 10.7895 164.681 16.4415 162.762 23.3057C158.921 37.0468 159.173 55.4353 161.249 73.9113C163.322 92.3686 167.205 110.835 170.572 124.693C172.255 131.62 173.808 137.392 174.941 141.432C175.127 142.098 175.302 142.717 175.465 143.286C175.812 144.438 176.094 145.389 176.306 146.116C176.465 146.66 176.585 147.078 176.666 147.361C176.706 147.502 176.736 147.609 176.757 147.681L176.78 147.763L176.786 147.784L176.787 147.789C176.787 147.791 176.788 147.791 176.127 147.976M200.873 147.976L201.528 148.178L200.212 147.791L200.873 147.976ZM176.127 147.976C175.472 148.178 175.472 148.177 175.472 148.176L175.47 148.17L175.464 148.15L175.439 148.068C175.417 147.997 175.385 147.89 175.342 147.749C175.257 147.468 175.132 147.051 174.972 146.508C174.757 145.782 174.48 144.829 174.149 143.672C173.978 143.106 173.791 142.491 173.588 141.829C172.357 137.819 170.543 132.123 168.213 125.385C163.554 111.907 156.837 94.273 148.602 77.6247C140.359 60.9597 130.63 45.354 119.969 35.871C114.644 31.1339 109.126 27.9612 103.483 26.9139C97.8614 25.8704 92.0509 26.9241 86.0879 30.7564C80.1248 34.5886 76.7526 39.4362 75.3663 44.9837C73.9748 50.5516 74.5688 56.8885 76.6656 63.7005C80.863 77.3371 91.0167 92.6701 102.752 107.091C114.475 121.497 127.725 134.933 138.049 144.77C143.21 149.688 147.638 153.705 150.774 156.491C151.292 156.95 151.773 157.376 152.218 157.767C153.133 158.548 153.884 159.196 154.455 159.693C154.883 160.065 155.21 160.351 155.431 160.545C155.541 160.643 155.625 160.716 155.681 160.766L155.744 160.823L155.761 160.837L155.765 160.841C155.766 160.841 155.766 160.842 155.31 161.354L155.766 160.842L154.869 161.878L155.295 161.372C155.046 161.667 154.943 161.79 154.899 161.841C154.868 161.877 154.867 161.877 154.867 161.877L154.863 161.873L154.846 161.859L154.781 161.804C154.724 161.756 154.639 161.683 154.527 161.588C154.304 161.397 153.973 161.114 153.545 160.744C152.972 160.249 152.223 159.598 151.32 158.803C150.87 158.419 150.38 158.002 149.851 157.556C146.647 154.848 142.042 151.037 136.439 146.628C125.233 137.809 110.048 126.606 94.12 117.052C78.1759 107.489 61.5539 99.6209 47.4587 97.407C40.4176 96.301 34.0608 96.6149 28.7475 98.7846C23.4538 100.946 19.1355 104.974 16.1909 111.422C13.2463 117.87 13.0302 123.771 14.8631 129.187C16.7029 134.623 20.6285 139.633 26.0753 144.23C36.9788 153.433 53.8104 160.842 71.4788 166.63C89.1295 172.411 107.54 176.55 121.544 179.244C128.545 180.591 134.441 181.576 138.586 182.224C139.269 182.331 139.905 182.429 140.49 182.517C141.682 182.68 142.664 182.819 143.414 182.928C143.974 183.009 144.405 183.074 144.695 183.118C144.775 183.13 144.845 183.14 144.903 183.149C144.951 183.157 144.992 183.163 145.025 183.168L145.109 183.181L145.13 183.185L145.136 183.185C145.137 183.186 145.138 183.186 145.031 183.863L145.138 183.186L144.943 184.543L145.03 183.868C144.978 184.271 144.956 184.433 144.947 184.499C144.941 184.542 144.941 184.542 144.941 184.542L144.935 184.542L144.914 184.539L144.829 184.528C144.755 184.518 144.644 184.503 144.499 184.483C144.208 184.444 143.777 184.384 143.216 184.304C142.466 184.198 141.484 184.055 140.295 183.874C139.708 183.795 139.071 183.709 138.385 183.619C134.225 183.073 128.291 182.357 121.194 181.677C106.998 180.317 88.1676 179.102 69.603 179.676C51.0198 180.251 32.7826 182.618 19.728 188.376C13.2067 191.253 8.02869 194.954 4.7319 199.651C1.44726 204.332 -0.00796633 210.055 1.00081 217.071C2.00958 224.087 5.01824 229.168 9.48847 232.734C13.9752 236.313 19.9862 238.405 27.0537 239.327C41.2016 241.174 59.367 238.308 77.3596 233.624C95.334 228.945 113.06 222.473 126.297 217.169C132.914 214.517 138.407 212.158 142.245 210.462C142.877 210.183 143.465 209.921 144.005 209.679C145.096 209.171 145.997 208.758 146.687 208.444C147.202 208.209 147.599 208.031 147.867 207.911C148.001 207.851 148.103 207.805 148.172 207.775L148.25 207.741L148.269 207.732L148.274 207.73C148.276 207.729 148.276 207.729 148.553 208.356L148.276 207.729L148.846 208.976L148.565 208.383C148.706 208.681 148.776 208.829 148.811 208.903C148.845 208.976 148.844 208.976 148.844 208.977L148.839 208.979L148.819 208.988L148.742 209.024C148.674 209.056 148.573 209.104 148.44 209.166C148.174 209.29 147.779 209.473 147.264 209.709C146.576 210.024 145.673 210.435 144.575 210.926C144.038 211.176 143.456 211.449 142.83 211.744C139.036 213.534 133.656 216.14 127.318 219.405C114.641 225.935 98.1419 235.093 82.835 245.613C67.5127 256.144 53.4504 267.995 45.5812 279.897C41.6502 285.842 39.295 291.755 39.0614 297.49C38.8286 303.203 40.6985 308.804 45.3404 314.161C49.9823 319.518 55.2605 322.166 60.9487 322.749C66.658 323.334 72.8458 321.844 79.2901 318.799C92.1906 312.704 105.923 300.471 118.527 286.804C131.118 273.15 142.531 258.122 150.799 246.503C154.932 240.695 158.278 235.74 160.589 232.239C160.97 231.662 161.323 231.124 161.647 230.629C162.29 229.612 162.825 228.776 163.235 228.14C163.542 227.664 163.779 227.299 163.94 227.053C164.02 226.93 164.082 226.837 164.123 226.774L164.169 226.703L164.181 226.685L164.184 226.681C164.185 226.68 164.186 226.679 164.757 227.057M176.127 147.976L176.788 147.791L175.472 148.178L176.127 147.976ZM164.757 227.057C165.339 227.42 165.338 227.421 165.338 227.422L165.335 227.426L165.323 227.445L165.278 227.517C165.238 227.58 165.179 227.675 165.1 227.799C164.943 228.047 164.71 228.415 164.405 228.892C163.996 229.529 163.458 230.363 162.8 231.37C162.484 231.87 162.142 232.415 161.775 233.001C159.55 236.558 156.434 241.659 152.867 247.832C145.732 260.18 136.804 276.804 129.615 293.93C122.418 311.072 116.996 328.645 116.81 342.912C116.717 350.039 117.933 356.286 120.837 361.237C123.73 366.169 128.331 369.87 135.132 371.867C141.933 373.864 147.805 373.238 152.906 370.653C158.025 368.058 162.425 363.46 166.2 357.414C173.757 345.312 178.696 327.597 181.91 309.285C185.12 290.991 186.597 272.179 187.271 257.934C187.608 250.813 187.744 244.837 187.795 240.641C187.804 239.95 187.81 239.307 187.814 238.715C187.805 237.512 187.804 236.52 187.805 235.763C187.806 235.196 187.808 234.761 187.81 234.467C187.811 234.377 187.812 234.3 187.812 234.237L187.813 234.134L187.814 234.049L187.814 234.027L187.815 234.022C187.815 234.02 187.815 234.02 188.5 234.029M164.757 227.057L164.186 226.679L165.339 227.42L164.757 227.057ZM188.5 234.029C189.185 234.02 189.185 234.02 189.185 234.022L189.185 234.027L189.186 234.049L189.187 234.134C189.187 234.209 189.189 234.32 189.19 234.467C189.192 234.761 189.194 235.196 189.195 235.763C189.196 236.52 189.195 237.512 189.185 238.716C189.19 239.307 189.196 239.95 189.205 240.641C189.256 244.837 189.392 250.813 189.729 257.934C190.403 272.179 191.88 290.991 195.09 309.285C198.304 327.597 203.243 345.312 210.8 357.414C214.575 363.46 218.975 368.058 224.094 370.653C229.195 373.238 235.067 373.864 241.868 371.867C248.669 369.87 253.27 366.169 256.163 361.237C259.067 356.286 260.283 350.039 260.19 342.912C260.004 328.645 254.582 311.072 247.385 293.93C240.196 276.804 231.268 260.18 224.133 247.832C220.566 241.659 217.45 236.558 215.225 233.001C214.858 232.415 214.516 231.87 214.199 231.37C213.542 230.363 213.004 229.529 212.595 228.892C212.29 228.415 212.057 228.047 211.9 227.799C211.86 227.736 211.825 227.681 211.795 227.633C211.766 227.587 211.741 227.548 211.722 227.517L211.677 227.445L211.665 227.426L211.662 227.422C211.662 227.421 211.661 227.42 212.243 227.057M188.5 234.029L187.815 234.02H189.185L188.5 234.029ZM212.243 227.057C212.814 226.679 212.815 226.68 212.815 226.681L212.819 226.685L212.83 226.703L212.877 226.774C212.918 226.837 212.98 226.93 213.06 227.053C213.142 227.179 213.244 227.335 213.365 227.521C213.481 227.7 213.615 227.907 213.765 228.14C214.175 228.776 214.71 229.612 215.353 230.629C215.677 231.124 216.03 231.662 216.411 232.239C218.722 235.74 222.068 240.695 226.201 246.503C234.469 258.122 245.882 273.15 258.473 286.804C271.077 300.471 284.809 312.704 297.71 318.799C304.154 321.844 310.342 323.334 316.051 322.749C321.739 322.166 327.018 319.518 331.66 314.161C336.301 308.804 338.171 303.203 337.939 297.49C337.705 291.755 335.35 285.842 331.419 279.897C323.549 267.995 309.487 256.144 294.165 245.613C278.858 235.093 262.359 225.935 249.682 219.405C243.344 216.14 237.964 213.534 234.17 211.744C233.544 211.449 232.962 211.176 232.425 210.926C231.327 210.435 230.424 210.024 229.736 209.709C229.221 209.473 228.826 209.29 228.56 209.166C228.427 209.104 228.325 209.056 228.258 209.024L228.181 208.988L228.161 208.979L228.156 208.977C228.155 208.976 228.154 208.976 228.447 208.356M212.243 227.057L211.661 227.42L212.814 226.679L212.243 227.057ZM228.447 208.356C228.724 207.729 228.724 207.729 228.726 207.73L228.731 207.732L228.75 207.741L228.828 207.775C228.897 207.805 228.999 207.851 229.133 207.911C229.401 208.031 229.798 208.209 230.313 208.444C231.003 208.758 231.904 209.171 232.995 209.679C233.535 209.921 234.123 210.183 234.755 210.462C238.593 212.158 244.085 214.517 250.703 217.169C263.94 222.473 281.666 228.945 299.64 233.624C317.633 238.308 335.798 241.174 349.946 239.327C357.014 238.405 363.025 236.313 367.512 232.734C371.982 229.168 374.99 224.087 375.999 217.071C377.008 210.055 375.553 204.332 372.268 199.651C368.971 194.954 363.793 191.253 357.272 188.376C344.217 182.618 325.98 180.251 307.397 179.676C288.832 179.102 270.002 180.317 255.806 181.677C248.709 182.357 242.774 183.073 238.615 183.619C237.929 183.709 237.292 183.795 236.705 183.874C235.516 184.055 234.534 184.198 233.784 184.304C233.223 184.384 232.792 184.444 232.501 184.483C232.428 184.493 232.363 184.502 232.307 184.509C232.253 184.517 232.207 184.523 232.171 184.528L232.086 184.539L232.065 184.542L232.059 184.542C232.058 184.542 232.057 184.543 231.969 183.863M228.447 208.356L228.154 208.976L228.724 207.729L228.447 208.356ZM231.969 183.863L232.057 184.543L231.862 183.186L231.969 183.863Z" stroke="#FF8B0F" stroke-width="1.37091"/>
</svg>
