<svg width="496" height="240" viewBox="0 0 496 240" fill="none" xmlns="http://www.w3.org/2000/svg">
<path d="M9.17377 101V25.2424H18.3475V92.862H53.563V101H9.17377ZM79.9894 102.184C74.5147 102.184 69.7922 100.975 65.8218 98.5586C61.8761 96.1172 58.8305 92.714 56.685 88.3491C54.5642 83.9595 53.5038 78.8547 53.5038 73.0348C53.5038 67.2149 54.5642 62.0855 56.685 57.6465C58.8305 53.183 61.8144 49.7058 65.6368 47.2151C69.4839 44.6997 73.9721 43.442 79.1016 43.442C82.0608 43.442 84.9831 43.9352 87.8684 44.9216C90.7537 45.9081 93.3801 47.511 95.7475 49.7305C98.1149 51.9253 100.001 54.8352 101.407 58.4603C102.813 62.0855 103.516 66.549 103.516 71.8511V75.5502H59.7183V68.004H94.6378C94.6378 64.7981 93.9966 61.9375 92.7143 59.4221C91.4566 56.9067 89.6563 54.9215 87.3136 53.4666C84.9955 52.0116 82.2581 51.2841 79.1016 51.2841C75.6244 51.2841 72.6158 52.1472 70.0758 53.8735C67.5604 55.575 65.6245 57.7945 64.2682 60.5318C62.9118 63.2692 62.2337 66.2038 62.2337 69.3357V74.3665C62.2337 78.6574 62.9735 82.2949 64.4531 85.2788C65.9574 88.2381 68.0413 90.4946 70.7046 92.0482C73.368 93.5771 76.4629 94.3416 79.9894 94.3416C82.2828 94.3416 84.3543 94.021 86.2038 93.3799C88.0781 92.714 89.6933 91.7276 91.0497 90.4206C92.406 89.0889 93.4541 87.4366 94.1939 85.4638L102.628 87.8312C101.74 90.6918 100.248 93.2072 98.1519 95.3774C96.0558 97.5228 93.4664 99.1998 90.3838 100.408C87.3012 101.592 83.8364 102.184 79.9894 102.184ZM146.625 56.9067L138.783 59.1262C138.29 57.8192 137.562 56.5491 136.6 55.3161C135.663 54.0584 134.381 53.0227 132.753 52.2089C131.126 51.3951 129.042 50.9882 126.502 50.9882C123.025 50.9882 120.127 51.7896 117.809 53.3926C115.516 54.9709 114.369 56.9807 114.369 59.4221C114.369 61.5922 115.158 63.3062 116.736 64.5639C118.315 65.8216 120.781 66.8696 124.134 67.7081L132.568 69.7796C137.648 71.0126 141.434 72.8992 143.925 75.4392C146.415 77.9546 147.661 81.1975 147.661 85.1678C147.661 88.4231 146.724 91.333 144.849 93.8977C143 96.4624 140.41 98.4846 137.081 99.9643C133.752 101.444 129.88 102.184 125.466 102.184C119.671 102.184 114.874 100.926 111.077 98.4106C107.279 95.8952 104.874 92.2208 103.863 87.3873L112.149 85.3158C112.938 88.3737 114.43 90.6672 116.625 92.1961C118.845 93.7251 121.742 94.4896 125.318 94.4896C129.387 94.4896 132.618 93.6265 135.01 91.9002C137.427 90.1493 138.635 88.0531 138.635 85.6117C138.635 83.6389 137.944 81.9866 136.563 80.6549C135.182 79.2986 133.062 78.2875 130.201 77.6217L120.731 75.4022C115.528 74.1692 111.705 72.258 109.264 69.6686C106.847 67.0546 105.639 63.787 105.639 59.866C105.639 56.6601 106.539 53.8241 108.339 51.3581C110.164 48.892 112.643 46.9561 115.774 45.5505C118.931 44.1448 122.507 43.442 126.502 43.442C132.124 43.442 136.539 44.675 139.745 47.1411C142.975 49.6072 145.269 52.8624 146.625 56.9067ZM215.726 44.1818L194.715 101H185.837L164.826 44.1818H174.296L189.98 89.4588H190.572L206.256 44.1818H215.726ZM266.535 101V44.1818H275.265V101H266.535ZM270.974 34.7121C269.272 34.7121 267.805 34.1326 266.572 32.9735C265.364 31.8145 264.759 30.4212 264.759 28.7936C264.759 27.166 265.364 25.7726 266.572 24.6136C267.805 23.4545 269.272 22.875 270.974 22.875C272.675 22.875 274.13 23.4545 275.339 24.6136C276.572 25.7726 277.188 27.166 277.188 28.7936C277.188 30.4212 276.572 31.8145 275.339 32.9735C274.13 34.1326 272.675 34.7121 270.974 34.7121ZM304.66 102.184C299.185 102.184 294.463 100.975 290.492 98.5586C286.547 96.1172 283.501 92.714 281.355 88.3491C279.235 83.9595 278.174 78.8547 278.174 73.0348C278.174 67.2149 279.235 62.0855 281.355 57.6465C283.501 53.183 286.485 49.7058 290.307 47.2151C294.154 44.6997 298.643 43.442 303.772 43.442C306.731 43.442 309.654 43.9352 312.539 44.9216C315.424 45.9081 318.051 47.511 320.418 49.7305C322.785 51.9253 324.672 54.8352 326.078 58.4603C327.483 62.0855 328.186 66.549 328.186 71.8511V75.5502H284.389V68.004H319.308C319.308 64.7981 318.667 61.9375 317.385 59.4221C316.127 56.9067 314.327 54.9215 311.984 53.4666C309.666 52.0116 306.929 51.2841 303.772 51.2841C300.295 51.2841 297.286 52.1472 294.746 53.8735C292.231 55.575 290.295 57.7945 288.939 60.5318C287.582 63.2692 286.904 66.2038 286.904 69.3357V74.3665C286.904 78.6574 287.644 82.2949 289.124 85.2788C290.628 88.2381 292.712 90.4946 295.375 92.0482C298.038 93.5771 301.133 94.3416 304.66 94.3416C306.953 94.3416 309.025 94.021 310.874 93.3799C312.748 92.714 314.364 91.7276 315.72 90.4206C317.076 89.0889 318.124 87.4366 318.864 85.4638L327.298 87.8312C326.41 90.6918 324.919 93.2072 322.822 95.3774C320.726 97.5228 318.137 99.1998 315.054 100.408C311.972 101.592 308.507 102.184 304.66 102.184ZM371.295 56.9067L363.453 59.1262C362.96 57.8192 362.233 56.5491 361.271 55.3161C360.334 54.0584 359.051 53.0227 357.424 52.2089C355.796 51.3951 353.712 50.9882 351.172 50.9882C347.695 50.9882 344.797 51.7896 342.479 53.3926C340.186 54.9709 339.039 56.9807 339.039 59.4221C339.039 61.5922 339.828 63.3062 341.407 64.5639C342.985 65.8216 345.451 66.8696 348.805 67.7081L357.239 69.7796C362.319 71.0126 366.104 72.8992 368.595 75.4392C371.086 77.9546 372.331 81.1975 372.331 85.1678C372.331 88.4231 371.394 91.333 369.52 93.8977C367.67 96.4624 365.081 98.4846 361.752 99.9643C358.422 101.444 354.551 102.184 350.136 102.184C344.341 102.184 339.545 100.926 335.747 98.4106C331.949 95.8952 329.545 92.2208 328.534 87.3873L336.82 85.3158C337.609 88.3737 339.101 90.6672 341.296 92.1961C343.515 93.7251 346.413 94.4896 349.989 94.4896C354.058 94.4896 357.288 93.6265 359.68 91.9002C362.097 90.1493 363.305 88.0531 363.305 85.6117C363.305 83.6389 362.615 81.9866 361.234 80.6549C359.853 79.2986 357.732 78.2875 354.871 77.6217L345.402 75.4022C340.198 74.1692 336.376 72.258 333.934 69.6686C331.518 67.0546 330.309 63.787 330.309 59.866C330.309 56.6601 331.209 53.8241 333.01 51.3581C334.835 48.892 337.313 46.9561 340.445 45.5505C343.601 44.1448 347.177 43.442 351.172 43.442C356.795 43.442 361.209 44.675 364.415 47.1411C367.646 49.6072 369.939 52.8624 371.295 56.9067ZM415.39 102.184C410.656 102.184 406.476 100.988 402.851 98.5956C399.225 96.1788 396.389 92.7757 394.343 88.3861C392.296 83.9718 391.272 78.7561 391.272 72.7389C391.272 66.771 392.296 61.5922 394.343 57.2026C396.389 52.813 399.238 49.4222 402.888 47.0301C406.537 44.638 410.754 43.442 415.538 43.442C419.238 43.442 422.16 44.0585 424.305 45.2915C426.475 46.4999 428.128 47.8809 429.262 49.4345C430.421 50.9635 431.321 52.2212 431.962 53.2076H432.702V25.2424H441.432V101H432.998V92.2701H431.962C431.321 93.3059 430.409 94.6129 429.225 96.1912C428.041 97.7448 426.352 99.1381 424.157 100.371C421.963 101.58 419.04 102.184 415.39 102.184ZM416.574 94.3416C420.076 94.3416 423.035 93.4292 425.452 91.6043C427.869 89.7547 429.706 87.2024 430.964 83.9471C432.221 80.6673 432.85 76.8819 432.85 72.5909C432.85 68.3493 432.234 64.6378 431.001 61.4566C429.768 58.2507 427.943 55.76 425.526 53.9844C423.109 52.1842 420.125 51.2841 416.574 51.2841C412.875 51.2841 409.793 52.2335 407.326 54.1324C404.885 56.0066 403.048 58.559 401.815 61.7895C400.606 64.9954 400.002 68.5959 400.002 72.5909C400.002 76.6353 400.619 80.3097 401.852 83.6142C403.109 86.8941 404.959 89.5081 407.4 91.4563C409.866 93.3799 412.924 94.3416 416.574 94.3416ZM472.039 102.184C466.564 102.184 461.841 100.975 457.871 98.5586C453.925 96.1172 450.88 92.714 448.734 88.3491C446.613 83.9595 445.553 78.8547 445.553 73.0348C445.553 67.2149 446.613 62.0855 448.734 57.6465C450.88 53.183 453.864 49.7058 457.686 47.2151C461.533 44.6997 466.021 43.442 471.151 43.442C474.11 43.442 477.032 43.9352 479.918 44.9216C482.803 45.9081 485.429 47.511 487.797 49.7305C490.164 51.9253 492.051 54.8352 493.456 58.4603C494.862 62.0855 495.565 66.549 495.565 71.8511V75.5502H451.767V68.004H486.687C486.687 64.7981 486.046 61.9375 484.763 59.4221C483.506 56.9067 481.706 54.9215 479.363 53.4666C477.045 52.0116 474.307 51.2841 471.151 51.2841C467.674 51.2841 464.665 52.1472 462.125 53.8735C459.61 55.575 457.674 57.7945 456.317 60.5318C454.961 63.2692 454.283 66.2038 454.283 69.3357V74.3665C454.283 78.6574 455.023 82.2949 456.502 85.2788C458.007 88.2381 460.09 90.4946 462.754 92.0482C465.417 93.5771 468.512 94.3416 472.039 94.3416C474.332 94.3416 476.403 94.021 478.253 93.3799C480.127 92.714 481.742 91.7276 483.099 90.4206C484.455 89.0889 485.503 87.4366 486.243 85.4638L494.677 87.8312C493.789 90.6918 492.297 93.2072 490.201 95.3774C488.105 97.5228 485.516 99.1998 482.433 100.408C479.35 101.592 475.886 102.184 472.039 102.184Z" fill="black"/>
<path d="M27.415 191.304C26.8724 191.542 25.7534 191.982 24.058 192.627C22.3626 193.271 20.4807 193.864 18.4123 194.407C16.3778 194.983 14.5467 195.272 12.9191 195.272C9.73172 195.272 7.45985 194.559 6.10352 193.135C4.74718 191.711 4.06901 189.88 4.06901 187.642C4.06901 187.134 4.08596 186.574 4.11987 185.964C4.15378 185.319 4.23855 184.658 4.37419 183.98L15.8183 124.42L6.56128 123.504V120.351L22.8373 117.248H26.8555L14.1907 183.675C14.1229 184.048 14.0889 184.506 14.0889 185.048C14.0889 186.065 14.5637 187.049 15.5131 187.998C16.4964 188.948 17.6493 189.422 18.9718 189.422C19.6499 189.422 20.5824 189.287 21.7692 189.015C22.956 188.71 24.0919 188.388 25.177 188.049C26.296 187.71 27.042 187.473 27.415 187.337V191.304ZM54.4515 128.082C54.4515 130.286 53.9429 132.473 52.9256 134.643C51.9084 136.78 50.6368 138.797 49.1109 140.696C47.619 142.561 46.0761 144.239 44.4824 145.731C42.9226 147.189 41.5833 148.342 40.4643 149.19H34.2082C35.8019 147.698 37.5142 146.003 39.3453 144.104C41.2103 142.171 42.804 140.103 44.1264 137.899C45.4488 135.694 46.11 133.423 46.11 131.083H39.6505C39.5148 130.812 39.3283 130.422 39.091 129.913C38.8536 129.404 38.7349 128.828 38.7349 128.184C38.7349 126.454 39.4979 124.742 41.0238 123.047C42.5496 121.317 44.4824 120.453 46.8221 120.453C47.9411 120.453 49.077 120.673 50.2299 121.114C51.4167 121.521 52.417 122.284 53.2308 123.403C54.0446 124.488 54.4515 126.048 54.4515 128.082ZM101.833 191.203C101.291 191.44 100.189 191.898 98.527 192.576C96.8655 193.22 95.0853 193.83 93.1864 194.407C91.2876 194.983 89.66 195.272 88.3036 195.272C85.7944 195.272 84.0142 194.661 82.9631 193.441C81.9458 192.186 81.3185 190.423 81.0811 188.151C79.5214 189.609 77.436 191.169 74.825 192.83C72.248 194.458 69.3997 195.272 66.2801 195.272C63.2284 195.272 60.7191 194.661 58.7524 193.441C56.7858 192.22 55.2429 190.66 54.1239 188.761C53.0389 186.828 52.2759 184.794 51.8351 182.658C51.4282 180.487 51.2248 178.47 51.2248 176.605C51.2248 172.57 51.869 168.552 53.1576 164.551C54.4461 160.515 56.3619 156.836 58.905 153.513C61.4482 150.19 64.5677 147.529 68.2638 145.528C71.9937 143.527 76.3001 142.527 81.1829 142.527C83.1156 142.527 84.9297 142.917 86.6252 143.697C88.3206 144.477 89.643 145.341 90.5925 146.291L92.1183 143.799H99.2391C98.9 144.578 98.5101 145.63 98.0693 146.952C97.6284 148.274 97.3572 149.207 97.2555 149.75C96.9503 150.835 96.5264 152.564 95.9839 154.937C95.4414 157.311 94.848 159.99 94.2037 162.974C93.5933 165.924 92.9999 168.857 92.4235 171.773C91.881 174.689 91.4232 177.283 91.0502 179.555C90.6772 181.827 90.4907 183.421 90.4907 184.336C90.4907 186.133 90.8807 187.388 91.6606 188.1C92.4405 188.778 93.5425 189.117 94.9666 189.117C95.4414 189.117 96.1534 188.999 97.1029 188.761C98.0523 188.49 98.9848 188.219 99.9003 187.947C100.85 187.676 101.494 187.507 101.833 187.439V191.203ZM86.5234 153.157C86.5573 152.92 86.3369 152.344 85.8622 151.428C85.3875 150.512 84.845 149.648 84.2346 148.834C83.6243 147.986 83.0987 147.562 82.6579 147.562C78.6906 147.562 75.3506 148.495 72.6379 150.36C69.9253 152.191 67.7551 154.565 66.1275 157.481C64.4999 160.397 63.3131 163.499 62.5671 166.788C61.8551 170.044 61.499 173.112 61.499 175.995C61.499 177.927 61.7194 179.843 62.1602 181.742C62.601 183.641 63.3979 185.218 64.5508 186.472C65.7376 187.727 67.3991 188.354 69.5353 188.354C71.1629 188.354 72.7736 187.93 74.3673 187.083C75.961 186.201 77.3512 185.235 78.538 184.184C79.7587 183.132 80.6064 182.369 81.0811 181.895L86.5234 153.157ZM147.689 148.783C147.689 150.512 147.401 152.089 146.824 153.513C146.282 154.904 145.841 155.938 145.502 156.616C142.416 162.313 139.093 167.653 135.533 172.638C131.972 177.622 128.564 182.047 125.309 185.913C122.088 189.778 119.409 192.898 117.273 195.272H111.271C111.983 193.746 112.526 192.338 112.899 191.05C113.272 189.728 113.424 188.49 113.357 187.337C113.357 187.167 113.272 186.032 113.102 183.929C112.967 181.793 112.746 179.165 112.441 176.045C112.17 172.892 111.848 169.637 111.475 166.28C111.136 162.923 110.746 159.905 110.305 157.226C109.898 154.514 109.491 152.598 109.084 151.479C108.44 150.089 107.643 149.393 106.694 149.393L99.2676 148.987V145.986L110.406 142.527C113.221 142.561 115.289 143.188 116.612 144.409C117.934 145.63 118.714 147.478 118.951 149.953L122.207 181.996C125.733 177.351 128.717 173.129 131.158 169.332C133.634 165.5 135.685 161.533 137.313 157.43L135.329 144.816C136.007 144.138 136.855 143.595 137.872 143.188C138.89 142.747 140.042 142.527 141.331 142.527C143.535 142.527 145.146 143.103 146.163 144.256C147.18 145.375 147.689 146.884 147.689 148.783ZM187.492 153.056C187.492 155.904 186.542 158.413 184.644 160.583C182.779 162.719 180.337 164.551 177.319 166.076C174.335 167.568 171.131 168.738 167.706 169.586C164.282 170.4 161.009 170.891 157.89 171.061C157.788 171.739 157.686 172.553 157.585 173.502C157.517 174.452 157.483 175.249 157.483 175.893C157.483 179.691 158.381 182.827 160.179 185.302C161.976 187.778 164.383 189.015 167.401 189.015C169.741 189.015 172.318 188.168 175.132 186.472C177.981 184.743 181.304 182.217 185.101 178.894V185.455C183.813 186.71 182.117 188.1 180.015 189.626C177.913 191.152 175.505 192.474 172.793 193.593C170.08 194.712 167.13 195.272 163.942 195.272C162.349 195.272 160.602 195.017 158.704 194.509C156.805 194 154.991 193.068 153.261 191.711C151.566 190.355 150.159 188.439 149.04 185.964C147.955 183.488 147.412 180.267 147.412 176.3C147.412 172.163 148.124 168.111 149.548 164.144C151.006 160.142 153.007 156.531 155.55 153.31C158.093 150.055 161.009 147.461 164.299 145.528C167.622 143.595 171.148 142.629 174.878 142.629C178.099 142.629 180.625 143.29 182.456 144.612C184.288 145.935 185.576 147.427 186.322 149.088C187.102 150.716 187.492 152.038 187.492 153.056ZM178.235 152.954C178.235 151.598 177.726 150.343 176.709 149.19C175.692 148.037 174.318 147.461 172.589 147.461C170.86 147.461 169.232 148.105 167.706 149.393C166.214 150.648 164.841 152.293 163.586 154.327C162.332 156.362 161.264 158.515 160.382 160.787C159.5 163.025 158.822 165.144 158.348 167.145C160.552 166.941 162.807 166.432 165.112 165.619C167.452 164.805 169.605 163.771 171.572 162.516C173.572 161.228 175.183 159.769 176.404 158.142C177.625 156.514 178.235 154.785 178.235 152.954ZM241.079 191.915C240.502 192.118 239.366 192.491 237.671 193.034C236.009 193.576 234.195 194.085 232.229 194.559C230.296 195.034 228.6 195.272 227.142 195.272C226.532 195.272 225.701 195.204 224.65 195.068C223.599 194.966 222.565 194.712 221.547 194.305C220.53 193.898 219.716 193.288 219.106 192.474C218.53 191.626 218.394 190.507 218.699 189.117L225.057 157.125C225.396 155.26 225.328 153.819 224.854 152.801C224.379 151.75 223.718 151.021 222.87 150.614C222.056 150.173 221.259 149.953 220.479 149.953C219.36 149.953 217.902 150.377 216.105 151.225C214.342 152.038 212.511 153.14 210.612 154.531C208.713 155.887 207.001 157.379 205.475 159.007L198.303 194H188.588L197.642 149.75L188.894 148.783V145.782L204.61 142.527H208.781L206.848 152.242C208.374 150.682 210.188 149.156 212.29 147.664C214.427 146.172 216.699 144.951 219.106 144.002C221.514 143.019 223.87 142.527 226.176 142.527C230.008 142.527 232.72 143.578 234.314 145.68C235.908 147.783 236.298 151.174 235.484 155.853L229.94 185.252C229.702 186.574 229.872 187.557 230.448 188.202C231.059 188.812 231.771 189.202 232.585 189.372C233.398 189.541 234.009 189.626 234.416 189.626C235.365 189.626 236.399 189.49 237.518 189.219C238.637 188.948 239.79 188.626 240.977 188.253L241.079 191.915ZM265.267 127.217C265.267 128.743 264.707 130.1 263.588 131.286C262.503 132.473 260.961 133.067 258.96 133.067C256.824 133.067 255.213 132.507 254.128 131.388C253.043 130.235 252.5 128.845 252.5 127.217C252.5 125.861 253.077 124.556 254.23 123.301C255.383 122.046 256.993 121.419 259.062 121.419C261.028 121.419 262.554 122.029 263.639 123.25C264.724 124.437 265.267 125.759 265.267 127.217ZM265.725 190.999C265.216 191.236 264.097 191.711 262.368 192.423C260.672 193.101 258.74 193.746 256.569 194.356C254.433 194.966 252.416 195.272 250.517 195.272C248.143 195.272 246.38 194.763 245.227 193.746C244.108 192.695 243.43 191.389 243.193 189.829C242.955 188.236 242.989 186.642 243.294 185.048L249.957 149.75L241.005 148.783V145.782L256.722 142.527H260.994L253.111 184.184C252.873 185.608 253.128 186.862 253.874 187.947C254.654 188.999 255.756 189.524 257.18 189.524C257.994 189.524 258.977 189.355 260.13 189.015C261.283 188.642 262.385 188.253 263.436 187.846C264.521 187.439 265.284 187.167 265.725 187.032V190.999ZM305.579 149.546C305.579 151.987 304.731 153.513 303.036 154.124C301.34 154.734 299.085 155.039 296.271 155.039L293.779 150.055C292.524 150.597 291.151 151.53 289.659 152.852C288.201 154.175 286.793 155.717 285.437 157.481C284.115 159.21 282.962 160.973 281.978 162.77C280.995 164.567 280.351 166.229 280.046 167.755L274.603 194H264.939L273.891 149.75L265.143 148.783V145.782L280.859 142.527H285.03L282.843 153.056C284.979 149.766 287.404 147.189 290.116 145.324C292.863 143.459 295.796 142.527 298.916 142.527C300.577 142.527 301.883 142.917 302.832 143.697C303.815 144.477 304.511 145.409 304.917 146.494C305.358 147.579 305.579 148.597 305.579 149.546Z" fill="black"/>
<path d="M238.245 42C246.934 42 240.099 64.1727 240.099 64.1727C240.099 64.1727 246.336 41.8244 253.646 46.5221C260.956 51.2199 243.218 66.1772 243.218 66.1772C243.218 66.1772 260.547 50.7488 264.157 58.6528C267.767 66.5567 244.758 69.55 244.758 69.55C244.758 69.55 267.678 65.9398 266.441 74.5405C265.205 83.1413 244.231 73.2201 244.231 73.2201C244.231 73.2201 265.464 82.5743 259.773 89.1412C254.083 95.708 241.802 76.0222 241.802 76.0222C241.802 76.0222 254.608 95.371 246.27 97.8191C237.933 100.267 238.245 77.0669 238.245 77.0669C238.245 77.0669 238.556 100.267 230.219 97.8191C221.882 95.371 234.687 76.0222 234.687 76.0222C234.687 76.0222 222.406 95.708 216.716 89.1412C211.026 82.5743 232.259 73.2201 232.259 73.2201C232.259 73.2201 211.285 83.1413 210.048 74.5405C208.812 65.9398 231.731 69.55 231.731 69.55C231.731 69.55 208.723 66.5567 212.333 58.6528C215.942 50.7488 233.272 66.1772 233.272 66.1772C233.272 66.1772 215.534 51.2199 222.844 46.5221C230.154 41.8244 236.391 64.1727 236.391 64.1727C236.391 64.1727 229.556 42 238.245 42Z" fill="#FF8B0F"/>
</svg>
