<svg width="456" height="174" viewBox="0 0 456 174" fill="none" xmlns="http://www.w3.org/2000/svg">
<path d="M6.2226 78.9267V3.16913H15.3964V70.7887H50.6118V78.9267H6.2226Z" fill="black"/>
<path d="M82.2465 80.1104C76.7718 80.1104 72.0493 78.9021 68.079 76.4853C64.1333 74.0439 61.0877 70.6407 58.9422 66.2758C56.8214 61.8862 55.761 56.7814 55.761 50.9615C55.761 45.1416 56.8214 40.0122 58.9422 35.5733C61.0877 31.1097 64.0716 27.6325 67.894 25.1418C71.7411 22.6264 76.2293 21.3687 81.3587 21.3687C84.318 21.3687 87.2403 21.8619 90.1256 22.8483C93.0109 23.8348 95.6373 25.4377 98.0047 27.6572C100.372 29.852 102.259 32.7619 103.664 36.3871C105.07 40.0122 105.773 44.4758 105.773 49.7778V53.4769H61.9754V45.9307H96.895C96.895 42.7248 96.2538 39.8642 94.9714 37.3488C93.7137 34.8334 91.9135 32.8483 89.5707 31.3933C87.2526 29.9383 84.5153 29.2108 81.3587 29.2108C77.8816 29.2108 74.873 30.0739 72.3329 31.8002C69.8175 33.5018 67.8817 35.7212 66.5253 38.4586C65.169 41.1959 64.4908 44.1305 64.4908 47.2624V52.2932C64.4908 56.5841 65.2307 60.2216 66.7103 63.2055C68.2146 66.1648 70.2984 68.4213 72.9618 69.9749C75.6251 71.5039 78.72 72.2683 82.2465 72.2683C84.54 72.2683 86.6115 71.9477 88.461 71.3066C90.3352 70.6407 91.9505 69.6543 93.3068 68.3473C94.6632 67.0156 95.7112 65.3633 96.4511 63.3905L104.885 65.7579C103.997 68.6186 102.505 71.1339 100.409 73.3041C98.3129 75.4496 95.7236 77.1265 92.641 78.3349C89.5584 79.5186 86.0936 80.1104 82.2465 80.1104Z" fill="black"/>
<path d="M154.09 34.8334L146.248 37.0529C145.755 35.7459 145.028 34.4759 144.066 33.2428C143.129 31.9851 141.846 30.9494 140.219 30.1356C138.591 29.3218 136.507 28.9149 133.967 28.9149C130.49 28.9149 127.593 29.7163 125.274 31.3193C122.981 32.8976 121.834 34.9074 121.834 37.3488C121.834 39.519 122.623 41.2329 124.202 42.4906C125.78 43.7483 128.246 44.7963 131.6 45.6348L140.034 47.7063C145.114 48.9393 148.899 50.8259 151.39 53.3659C153.881 55.8813 155.126 59.1242 155.126 63.0946C155.126 66.3498 154.189 69.2597 152.315 71.8244C150.465 74.3892 147.876 76.4113 144.547 77.891C141.218 79.3706 137.346 80.1104 132.932 80.1104C127.136 80.1104 122.34 78.8527 118.542 76.3373C114.744 73.822 112.34 70.1475 111.329 65.314L119.615 63.2425C120.404 66.3005 121.896 68.5939 124.091 70.1229C126.31 71.6518 129.208 72.4163 132.784 72.4163C136.853 72.4163 140.083 71.5532 142.475 69.8269C144.892 68.076 146.1 65.9799 146.1 63.5385C146.1 61.5656 145.41 59.9133 144.029 58.5817C142.648 57.2253 140.527 56.2142 137.666 55.5484L128.197 53.3289C122.993 52.0959 119.171 50.1847 116.73 47.5953C114.313 44.9813 113.104 41.7138 113.104 37.7927C113.104 34.5868 114.005 31.7509 115.805 29.2848C117.63 26.8187 120.108 24.8829 123.24 23.4772C126.397 22.0715 129.972 21.3687 133.967 21.3687C139.59 21.3687 144.004 22.6017 147.21 25.0678C150.441 27.5339 152.734 30.7891 154.09 34.8334Z" fill="black"/>
<path d="M233.608 22.1085L212.597 78.9267H203.719L182.709 22.1085H192.178L207.862 67.3855H208.454L224.138 22.1085H233.608Z" fill="black"/>
<path d="M294.834 78.9267V22.1085H303.564V78.9267H294.834ZM299.273 12.6388C297.571 12.6388 296.104 12.0593 294.871 10.9003C293.662 9.7412 293.058 8.34788 293.058 6.72027C293.058 5.09267 293.662 3.69934 294.871 2.54029C296.104 1.38124 297.571 0.801712 299.273 0.801712C300.974 0.801712 302.429 1.38124 303.638 2.54029C304.871 3.69934 305.487 5.09267 305.487 6.72027C305.487 8.34788 304.871 9.7412 303.638 10.9003C302.429 12.0593 300.974 12.6388 299.273 12.6388Z" fill="black"/>
<path d="M338.167 80.1104C332.692 80.1104 327.97 78.9021 323.999 76.4853C320.054 74.0439 317.008 70.6407 314.863 66.2758C312.742 61.8862 311.681 56.7814 311.681 50.9615C311.681 45.1416 312.742 40.0122 314.863 35.5733C317.008 31.1097 319.992 27.6325 323.814 25.1418C327.661 22.6264 332.15 21.3687 337.279 21.3687C340.238 21.3687 343.161 21.8619 346.046 22.8483C348.931 23.8348 351.558 25.4377 353.925 27.6572C356.293 29.852 358.179 32.7619 359.585 36.3871C360.99 40.0122 361.693 44.4758 361.693 49.7778V53.4769H317.896V45.9307H352.815C352.815 42.7248 352.174 39.8642 350.892 37.3488C349.634 34.8334 347.834 32.8483 345.491 31.3933C343.173 29.9383 340.436 29.2108 337.279 29.2108C333.802 29.2108 330.793 30.0739 328.253 31.8002C325.738 33.5018 323.802 35.7212 322.446 38.4586C321.089 41.1959 320.411 44.1305 320.411 47.2624V52.2932C320.411 56.5841 321.151 60.2216 322.631 63.2055C324.135 66.1648 326.219 68.4213 328.882 69.9749C331.546 71.5039 334.64 72.2683 338.167 72.2683C340.46 72.2683 342.532 71.9477 344.381 71.3066C346.256 70.6407 347.871 69.6543 349.227 68.3473C350.584 67.0156 351.632 65.3633 352.371 63.3905L360.805 65.7579C359.918 68.6186 358.426 71.1339 356.33 73.3041C354.233 75.4496 351.644 77.1265 348.561 78.3349C345.479 79.5186 342.014 80.1104 338.167 80.1104Z" fill="black"/>
<path d="M410.011 34.8334L402.169 37.0529C401.676 35.7459 400.948 34.4759 399.986 33.2428C399.049 31.9851 397.767 30.9494 396.139 30.1356C394.512 29.3218 392.428 28.9149 389.888 28.9149C386.411 28.9149 383.513 29.7163 381.195 31.3193C378.901 32.8976 377.755 34.9074 377.755 37.3488C377.755 39.519 378.544 41.2329 380.122 42.4906C381.7 43.7483 384.166 44.7963 387.52 45.6348L395.954 47.7063C401.034 48.9393 404.82 50.8259 407.311 53.3659C409.801 55.8813 411.047 59.1242 411.047 63.0946C411.047 66.3498 410.109 69.2597 408.235 71.8244C406.386 74.3892 403.796 76.4113 400.467 77.891C397.138 79.3706 393.266 80.1104 388.852 80.1104C383.057 80.1104 378.26 78.8527 374.463 76.3373C370.665 73.822 368.26 70.1475 367.249 65.314L375.535 63.2425C376.324 66.3005 377.816 68.5939 380.011 70.1229C382.231 71.6518 385.128 72.4163 388.704 72.4163C392.773 72.4163 396.004 71.5532 398.396 69.8269C400.812 68.076 402.021 65.9799 402.021 63.5385C402.021 61.5656 401.33 59.9133 399.949 58.5817C398.568 57.2253 396.447 56.2142 393.587 55.5484L384.117 53.3289C378.914 52.0959 375.091 50.1847 372.65 47.5953C370.233 44.9813 369.025 41.7138 369.025 37.7927C369.025 34.5868 369.925 31.7509 371.725 29.2848C373.55 26.8187 376.028 24.8829 379.16 23.4772C382.317 22.0715 385.893 21.3687 389.888 21.3687C395.51 21.3687 399.925 22.6017 403.131 25.0678C406.361 27.5339 408.655 30.7891 410.011 34.8334Z" fill="black"/>
<path d="M52.1331 95.175L40.2821 162.975C40.0447 164.263 40.1803 165.264 40.689 165.976C41.1976 166.654 41.8079 167.129 42.52 167.4C43.2321 167.637 43.7407 167.756 44.0459 167.756C44.385 167.756 45.0971 167.603 46.1821 167.298C47.2672 166.993 48.3523 166.688 49.4373 166.383C50.5224 166.044 51.2175 165.84 51.5227 165.772V169.638C50.9802 169.841 49.8782 170.231 48.2166 170.808C46.589 171.384 44.8088 171.927 42.8761 172.435C40.9772 172.944 39.3157 173.198 37.8915 173.198C34.7041 173.198 32.6018 172.469 31.5846 171.011C30.5673 169.519 30.0587 167.637 30.0587 165.365C28.2615 167.298 26.0744 169.095 23.4974 170.757C20.9204 172.384 18.1738 173.198 15.2577 173.198C11.3921 173.198 8.37424 172.249 6.2041 170.35C4.06787 168.451 2.55895 166.078 1.67733 163.229C0.829617 160.347 0.405762 157.448 0.405762 154.532C0.405762 150.395 1.06698 146.309 2.3894 142.274C3.74574 138.239 5.69548 134.577 8.23861 131.287C10.7817 127.998 13.8674 125.37 17.4956 123.404C21.1238 121.437 25.2437 120.454 29.8552 120.454C31.4489 120.454 32.9239 120.708 34.2803 121.217C35.6705 121.725 36.8065 122.132 37.6881 122.437L41.1976 102.347L31.7371 101.431V98.2776L47.8606 95.175H52.1331ZM36.2131 130.881C36.247 130.677 35.8909 130.101 35.1449 129.151C34.4329 128.202 33.5682 127.303 32.5509 126.456C31.5337 125.574 30.5673 125.133 29.6518 125.133C26.2948 125.133 23.1583 126.405 20.2422 128.948C17.3261 131.491 14.9694 134.933 13.1723 139.273C11.3751 143.613 10.4766 148.496 10.4766 153.921C10.4766 158.397 11.3243 161.669 13.0197 163.738C14.7151 165.806 16.5801 166.84 18.6146 166.84C20.5135 166.84 22.6497 165.959 25.0233 164.196C27.4308 162.432 29.567 160.466 31.432 158.296L36.2131 130.881Z" fill="black"/>
<path d="M95.3154 130.982C95.3154 133.831 94.366 136.34 92.4671 138.51C90.6022 140.646 88.1608 142.477 85.1429 144.003C82.159 145.495 78.9546 146.665 75.5299 147.513C72.1051 148.326 68.833 148.818 65.7134 148.988C65.6117 149.666 65.5099 150.48 65.4082 151.429C65.3404 152.379 65.3065 153.175 65.3065 153.82C65.3065 157.617 66.205 160.754 68.0022 163.229C69.7993 165.705 72.2068 166.942 75.2247 166.942C77.5644 166.942 80.1414 166.094 82.9558 164.399C85.8041 162.67 89.1271 160.144 92.9249 156.821V163.382C91.6364 164.636 89.941 166.027 87.8386 167.553C85.7363 169.078 83.3288 170.401 80.6161 171.52C77.9035 172.639 74.9534 173.198 71.766 173.198C70.1723 173.198 68.4261 172.944 66.5272 172.435C64.6283 171.927 62.8142 170.994 61.0849 169.638C59.3895 168.282 57.9823 166.366 56.8633 163.89C55.7782 161.415 55.2357 158.194 55.2357 154.227C55.2357 150.09 55.9478 146.038 57.3719 142.07C58.83 138.069 60.8306 134.458 63.3737 131.237C65.9168 127.981 68.833 125.387 72.1221 123.455C75.4451 121.522 78.9716 120.555 82.7015 120.555C85.9228 120.555 88.449 121.217 90.28 122.539C92.1111 123.862 93.3996 125.354 94.1456 127.015C94.9255 128.643 95.3154 129.965 95.3154 130.982ZM86.0584 130.881C86.0584 129.524 85.5498 128.27 84.5326 127.117C83.5153 125.964 82.142 125.387 80.4127 125.387C78.6833 125.387 77.0557 126.032 75.5299 127.32C74.0379 128.575 72.6646 130.219 71.41 132.254C70.1554 134.288 69.0873 136.442 68.2057 138.713C67.324 140.951 66.6459 143.071 66.1711 145.071C68.3752 144.868 70.6301 144.359 72.9359 143.545C75.2756 142.732 77.4287 141.697 79.3954 140.443C81.396 139.154 83.0067 137.696 84.2274 136.069C85.4481 134.441 86.0584 132.712 86.0584 130.881Z" fill="black"/>
<path d="M155.079 169.231C154.536 169.468 153.418 169.909 151.722 170.553C150.027 171.198 148.145 171.791 146.076 172.334C144.042 172.91 142.211 173.198 140.583 173.198C137.396 173.198 135.124 172.486 133.768 171.062C132.411 169.638 131.733 167.807 131.733 165.569C131.733 165.06 131.75 164.501 131.784 163.89C131.818 163.246 131.903 162.585 132.038 161.907L143.482 102.347L134.225 101.431V98.2776L150.501 95.175H154.52L141.855 161.602C141.787 161.975 141.753 162.432 141.753 162.975C141.753 163.992 142.228 164.975 143.177 165.925C144.161 166.874 145.313 167.349 146.636 167.349C147.314 167.349 148.246 167.213 149.433 166.942C150.62 166.637 151.756 166.315 152.841 165.976C153.96 165.637 154.706 165.399 155.079 165.264V169.231Z" fill="black"/>
<path d="M185.241 106.009C185.241 108.213 184.732 110.4 183.715 112.57C182.697 114.706 181.426 116.724 179.9 118.623C178.408 120.488 176.865 122.166 175.271 123.658C173.712 125.116 172.372 126.269 171.253 127.117H164.997C166.591 125.625 168.303 123.929 170.134 122.03C171.999 120.098 173.593 118.029 174.915 115.825C176.238 113.621 176.899 111.349 176.899 109.01H170.44C170.304 108.738 170.117 108.348 169.88 107.84C169.643 107.331 169.524 106.755 169.524 106.11C169.524 104.381 170.287 102.669 171.813 100.973C173.339 99.244 175.271 98.3793 177.611 98.3793C178.73 98.3793 179.866 98.5998 181.019 99.0406C182.206 99.4475 183.206 100.21 184.02 101.329C184.834 102.414 185.241 103.974 185.241 106.009Z" fill="black"/>
<path d="M235.747 169.129C235.205 169.367 234.103 169.824 232.441 170.503C230.78 171.147 228.999 171.757 227.101 172.334C225.202 172.91 223.574 173.198 222.218 173.198C219.708 173.198 217.928 172.588 216.877 171.367C215.86 170.113 215.233 168.349 214.995 166.078C213.435 167.536 211.35 169.095 208.739 170.757C206.162 172.384 203.314 173.198 200.194 173.198C197.142 173.198 194.633 172.588 192.667 171.367C190.7 170.147 189.157 168.587 188.038 166.688C186.953 164.755 186.19 162.721 185.749 160.584C185.342 158.414 185.139 156.397 185.139 154.532C185.139 150.497 185.783 146.478 187.072 142.477C188.36 138.442 190.276 134.763 192.819 131.44C195.362 128.117 198.482 125.455 202.178 123.455C205.908 121.454 210.214 120.454 215.097 120.454C217.03 120.454 218.844 120.844 220.539 121.624C222.235 122.403 223.557 123.268 224.507 124.218L226.032 121.725H233.153C232.814 122.505 232.424 123.556 231.983 124.879C231.543 126.201 231.271 127.134 231.17 127.676C230.864 128.761 230.44 130.491 229.898 132.864C229.355 135.238 228.762 137.917 228.118 140.901C227.507 143.851 226.914 146.784 226.338 149.7C225.795 152.616 225.337 155.21 224.964 157.482C224.591 159.754 224.405 161.347 224.405 162.263C224.405 164.06 224.795 165.315 225.575 166.027C226.355 166.705 227.457 167.044 228.881 167.044C229.355 167.044 230.068 166.925 231.017 166.688C231.966 166.417 232.899 166.145 233.814 165.874C234.764 165.603 235.408 165.433 235.747 165.365V169.129ZM220.438 131.084C220.471 130.847 220.251 130.27 219.776 129.355C219.302 128.439 218.759 127.575 218.149 126.761C217.538 125.913 217.013 125.489 216.572 125.489C212.605 125.489 209.265 126.422 206.552 128.287C203.839 130.118 201.669 132.491 200.042 135.407C198.414 138.323 197.227 141.426 196.481 144.715C195.769 147.97 195.413 151.039 195.413 153.921C195.413 155.854 195.633 157.77 196.074 159.669C196.515 161.568 197.312 163.144 198.465 164.399C199.652 165.654 201.313 166.281 203.449 166.281C205.077 166.281 206.688 165.857 208.281 165.009C209.875 164.128 211.265 163.161 212.452 162.11C213.673 161.059 214.52 160.296 214.995 159.821L220.438 131.084Z" fill="black"/>
<path d="M284.728 126.71C284.728 128.439 284.44 130.016 283.863 131.44C283.321 132.83 282.88 133.865 282.541 134.543C279.455 140.239 276.132 145.58 272.572 150.564C269.011 155.549 265.604 159.974 262.348 163.84C259.127 167.705 256.448 170.825 254.312 173.198H248.31C249.022 171.672 249.565 170.265 249.938 168.977C250.311 167.654 250.463 166.417 250.396 165.264C250.396 165.094 250.311 163.958 250.141 161.856C250.006 159.72 249.785 157.092 249.48 153.972C249.209 150.819 248.887 147.564 248.514 144.207C248.175 140.85 247.785 137.832 247.344 135.153C246.937 132.44 246.53 130.525 246.123 129.406C245.479 128.015 244.682 127.32 243.733 127.32L236.307 126.913V123.912L247.446 120.454C250.26 120.488 252.328 121.115 253.651 122.336C254.973 123.556 255.753 125.404 255.99 127.88L259.246 159.923C262.772 155.278 265.756 151.056 268.198 147.258C270.673 143.427 272.724 139.459 274.352 135.356L272.368 122.743C273.046 122.064 273.894 121.522 274.911 121.115C275.929 120.674 277.082 120.454 278.37 120.454C280.574 120.454 282.185 121.03 283.202 122.183C284.219 123.302 284.728 124.811 284.728 126.71Z" fill="black"/>
<path d="M327.656 130.982C327.656 133.831 326.706 136.34 324.808 138.51C322.943 140.646 320.501 142.477 317.483 144.003C314.499 145.495 311.295 146.665 307.87 147.513C304.446 148.326 301.173 148.818 298.054 148.988C297.952 149.666 297.85 150.48 297.749 151.429C297.681 152.379 297.647 153.175 297.647 153.82C297.647 157.617 298.546 160.754 300.343 163.229C302.14 165.705 304.547 166.942 307.565 166.942C309.905 166.942 312.482 166.094 315.296 164.399C318.145 162.67 321.468 160.144 325.265 156.821V163.382C323.977 164.636 322.281 166.027 320.179 167.553C318.077 169.078 315.669 170.401 312.957 171.52C310.244 172.639 307.294 173.198 304.107 173.198C302.513 173.198 300.767 172.944 298.868 172.435C296.969 171.927 295.155 170.994 293.425 169.638C291.73 168.282 290.323 166.366 289.204 163.89C288.119 161.415 287.576 158.194 287.576 154.227C287.576 150.09 288.288 146.038 289.712 142.07C291.17 138.069 293.171 134.458 295.714 131.237C298.257 127.981 301.173 125.387 304.463 123.455C307.786 121.522 311.312 120.555 315.042 120.555C318.263 120.555 320.789 121.217 322.621 122.539C324.452 123.862 325.74 125.354 326.486 127.015C327.266 128.643 327.656 129.965 327.656 130.982ZM318.399 130.881C318.399 129.524 317.89 128.27 316.873 127.117C315.856 125.964 314.483 125.387 312.753 125.387C311.024 125.387 309.396 126.032 307.87 127.32C306.378 128.575 305.005 130.219 303.75 132.254C302.496 134.288 301.428 136.442 300.546 138.713C299.665 140.951 298.986 143.071 298.512 145.071C300.716 144.868 302.971 144.359 305.276 143.545C307.616 142.732 309.769 141.697 311.736 140.443C313.737 139.154 315.347 137.696 316.568 136.069C317.789 134.441 318.399 132.712 318.399 130.881Z" fill="black"/>
<path d="M384.368 169.841C383.791 170.045 382.655 170.418 380.96 170.96C379.298 171.503 377.484 172.011 375.518 172.486C373.585 172.961 371.889 173.198 370.431 173.198C369.821 173.198 368.99 173.13 367.939 172.995C366.888 172.893 365.854 172.639 364.837 172.232C363.819 171.825 363.005 171.215 362.395 170.401C361.819 169.553 361.683 168.434 361.988 167.044L368.346 135.051C368.685 133.186 368.617 131.745 368.143 130.728C367.668 129.677 367.007 128.948 366.159 128.541C365.345 128.1 364.548 127.88 363.768 127.88C362.649 127.88 361.191 128.304 359.394 129.151C357.631 129.965 355.8 131.067 353.901 132.457C352.002 133.814 350.29 135.306 348.764 136.933L341.592 171.927H331.878L340.931 127.676L332.183 126.71V123.709L347.899 120.454H352.07L350.137 130.168C351.663 128.609 353.477 127.083 355.58 125.591C357.716 124.099 359.988 122.878 362.395 121.929C364.803 120.945 367.159 120.454 369.465 120.454C373.297 120.454 376.009 121.505 377.603 123.607C379.197 125.71 379.587 129.1 378.773 133.78L373.229 163.178C372.991 164.501 373.161 165.484 373.737 166.128C374.348 166.739 375.06 167.129 375.874 167.298C376.688 167.468 377.298 167.553 377.705 167.553C378.654 167.553 379.688 167.417 380.807 167.146C381.926 166.874 383.079 166.552 384.266 166.179L384.368 169.841Z" fill="black"/>
<path d="M411.681 105.144C411.681 106.67 411.122 108.026 410.003 109.213C408.917 110.4 407.375 110.993 405.374 110.993C403.238 110.993 401.627 110.434 400.542 109.315C399.457 108.162 398.914 106.772 398.914 105.144C398.914 103.788 399.491 102.482 400.644 101.228C401.797 99.973 403.407 99.3457 405.476 99.3457C407.442 99.3457 408.968 99.9561 410.053 101.177C411.138 102.364 411.681 103.686 411.681 105.144ZM412.139 168.926C411.63 169.163 410.511 169.638 408.782 170.35C407.086 171.028 405.154 171.672 402.983 172.283C400.847 172.893 398.83 173.198 396.931 173.198C394.557 173.198 392.794 172.69 391.641 171.672C390.522 170.621 389.844 169.316 389.607 167.756C389.369 166.162 389.403 164.569 389.708 162.975L396.371 127.676L387.42 126.71V123.709L403.136 120.454H407.409L399.525 162.11C399.287 163.534 399.542 164.789 400.288 165.874C401.068 166.925 402.17 167.451 403.594 167.451C404.408 167.451 405.391 167.281 406.544 166.942C407.697 166.569 408.799 166.179 409.85 165.772C410.935 165.365 411.698 165.094 412.139 164.959V168.926Z" fill="black"/>
<path d="M455.118 127.473C455.118 129.914 454.27 131.44 452.575 132.05C450.879 132.661 448.624 132.966 445.81 132.966L443.318 127.981C442.063 128.524 440.69 129.456 439.198 130.779C437.74 132.101 436.332 133.644 434.976 135.407C433.654 137.137 432.501 138.9 431.517 140.697C430.534 142.494 429.89 144.156 429.585 145.682L424.142 171.927H414.478L423.43 127.676L414.682 126.71V123.709L430.398 120.454H434.569L432.382 130.982C434.518 127.693 436.943 125.116 439.655 123.251C442.402 121.386 445.335 120.454 448.455 120.454C450.116 120.454 451.422 120.844 452.371 121.624C453.354 122.403 454.05 123.336 454.456 124.421C454.897 125.506 455.118 126.523 455.118 127.473Z" fill="black"/>
<path d="M260.703 21.5278C269.392 21.5278 262.557 43.7004 262.557 43.7004C262.557 43.7004 268.794 21.3522 276.104 26.0499C283.414 30.7476 265.676 45.705 265.676 45.705C265.676 45.705 283.005 30.2766 286.615 38.1805C290.225 46.0845 267.216 49.0777 267.216 49.0777C267.216 49.0777 290.136 45.4675 288.899 54.0683C287.663 62.669 266.689 52.7478 266.689 52.7478C266.689 52.7478 287.922 62.1021 282.232 68.6689C276.541 75.2358 264.26 55.55 264.26 55.55C264.26 55.55 277.066 74.8988 268.728 77.3468C260.391 79.7948 260.703 56.5946 260.703 56.5946C260.703 56.5946 261.015 79.7948 252.677 77.3468C244.34 74.8988 257.145 55.55 257.145 55.55C257.145 55.55 244.864 75.2358 239.174 68.6689C233.484 62.1021 254.717 52.7478 254.717 52.7478C254.717 52.7478 233.743 62.669 232.506 54.0683C231.27 45.4675 254.189 49.0777 254.189 49.0777C254.189 49.0777 231.181 46.0845 234.791 38.1805C238.4 30.2766 255.73 45.705 255.73 45.705C255.73 45.705 237.992 30.7476 245.302 26.0499C252.612 21.3522 258.849 43.7004 258.849 43.7004C258.849 43.7004 252.014 21.5278 260.703 21.5278Z" fill="#FF8B0F"/>
</svg>
