<svg width="385" height="385" viewBox="0 0 385 385" fill="none" xmlns="http://www.w3.org/2000/svg">
<path d="M192.5 0C251.72 0 205.135 152.437 205.135 152.437C205.135 152.437 247.645 -1.2072 297.464 31.0896C347.283 63.3865 226.394 166.219 226.394 166.219C226.394 166.219 344.501 60.1481 369.102 114.488C393.703 168.827 236.891 189.406 236.891 189.406C236.891 189.406 393.099 164.586 384.671 223.716C376.243 282.846 233.295 214.638 233.295 214.638C233.295 214.638 378.008 278.948 339.227 324.095C300.445 369.242 216.747 233.903 216.747 233.903C216.747 233.903 304.019 366.926 247.198 383.756C190.376 400.586 192.5 241.085 192.5 241.085C192.5 241.085 194.624 400.586 137.802 383.756C80.9811 366.926 168.253 233.903 168.253 233.903C168.253 233.903 84.5546 369.242 45.7736 324.095C6.99253 278.948 151.705 214.638 151.705 214.638C151.705 214.638 8.7571 282.846 0.329171 223.716C-8.09876 164.586 148.109 189.406 148.109 189.406C148.109 189.406 -8.70327 168.827 15.8977 114.488C40.4987 60.1481 158.606 166.219 158.606 166.219C158.606 166.219 37.717 63.3865 87.5363 31.0896C137.355 -1.20721 179.865 152.437 179.865 152.437C179.865 152.437 133.28 0 192.5 0Z" fill="#FF8B0F" fill-opacity="0.19"/>
</svg>
