<svg width="56" height="45" viewBox="0 0 56 45" fill="none" xmlns="http://www.w3.org/2000/svg">
<path d="M31.532 25.438L31.532 0.970066H56L56 25.7876C56 42.5656 40.2706 44.6628 40.2706 44.6628L38.1733 39.7693C38.1733 39.7693 45.1642 38.7206 46.5624 33.1279C47.9605 28.9334 45.1642 25.438 45.1642 25.438L31.532 25.438ZM0.0732422 25.438L0.0732422 0.970066H24.5412L24.5412 25.7876C24.5412 42.5656 8.8118 44.6628 8.8118 44.6628L6.71454 39.7693C6.71454 39.7693 13.7054 38.7206 15.1036 33.1279C16.5017 28.9334 13.7054 25.438 13.7054 25.438L0.0732422 25.438Z" fill="#FFEAD3"/>
</svg>
